<svg width="50" height="50" xmlns="http://www.w3.org/2000/svg">
  <ellipse ry="22.5" rx="22.5" id="svg_2" cy="25" cx="25" stroke-width="5" stroke="#ff0000" fill="#ffffff"/>
  <path d="m20.62084,23.188047c0,-0.931759 0.720871,-1.706558 1.652609,-1.780134c0.926834,-0.073544 1.868378,-0.107864 2.814823,-0.107864c0.946451,0 1.883091,0.039223 2.809927,0.107864c0.931736,0.073576 1.652603,0.848375 1.652603,1.780134l0,2.319519l-2.51569,0.720882c-0.549231,0.156906 -0.92683,0.657118 -0.92683,1.225973l0,7.247921c0,0.853283 0.59827,1.583946 1.436836,1.750694l5.423689,1.083736c0.240292,0.049034 0.411926,0.255013 0.411926,0.500206l0,1.113178l-16.584917,0l0,-1.113178c0,-0.245193 0.171637,-0.451172 0.411926,-0.500206l5.418783,-1.083736c0.83366,-0.166748 1.43684,-0.897411 1.43684,-1.750694l0,-7.247921c0,-0.568855 -0.377602,-1.069067 -0.926838,-1.225973l-2.515688,-0.720882l0,-2.319519zm6.88504,-11.857598c0.009811,-0.058829 0.014717,-0.117681 0.014717,-0.176533c0,-0.686535 -0.544334,-1.245577 -1.221067,-1.275017c-0.402115,-0.034321 -0.809141,-0.053921 -1.216164,-0.053921c-0.407019,0 -0.814039,0.0196 -1.211254,0.053921c-0.681641,0.02944 -1.221064,0.588482 -1.221064,1.275017c0,0.058852 0.004902,0.122612 0.014704,0.176533c-5.889551,1.132799 -10.332465,6.306399 -10.332465,12.519601c0,4.766586 2.61867,8.92507 6.492734,11.112185l1.804628,-2.358742c-3.182619,-1.623201 -5.364847,-4.93331 -5.364847,-8.753443c0,-5.423683 4.393879,-9.817549 9.817564,-9.817549s9.817566,4.393866 9.817566,9.817549c0,3.820133 -2.182224,7.130241 -5.36484,8.753443c0.735579,0.96114 1.255392,1.642796 1.804623,2.358742c3.874067,-2.187115 6.492739,-6.345598 6.492739,-11.112185c0,-6.213202 -4.442913,-11.386802 -10.327574,-12.519601z" fill="#FF0000"/>
</svg>