<svg width="50" height="50" xmlns="http://www.w3.org/2000/svg">\
  <ellipse stroke="#FF0000" ry="22.5" rx="22.5" cy="25" cx="25" stroke-width="5" fill="#FFFFFF"/>
  <path fill-rule="evenodd" fill="#FF0000" d="m23.659403,9.26218c-0.69796,0.125941 -1.245663,0.694619 -1.245663,1.293455c0,0.234908 -0.080837,0.304665 -0.353245,0.304665c-0.080181,0 -0.335936,0.060056 -0.568287,0.133419c-0.232349,0.073425 -0.56999,0.178784 -0.750286,0.234249c-1.2374,0.380516 -3.214142,1.485553 -4.228697,2.36381c-0.552422,0.47827 -1.835714,1.792052 -1.835714,1.879382c0,0.018093 -0.058022,0.10175 -0.128959,0.185929c-0.2313,0.274574 -0.563109,0.738287 -0.693771,0.969587c-0.070347,0.124567 -0.19262,0.325382 -0.27175,0.44628c-0.165806,0.253454 -0.733763,1.41186 -0.811255,1.654697c-0.028717,0.090149 -0.13014,0.370428 -0.225335,0.622837c-0.095193,0.252411 -0.196025,0.562185 -0.224154,0.688391c-0.028126,0.126207 -0.083854,0.347473 -0.123912,0.491711c-0.49387,1.778412 -0.48076,4.544832 0.030619,6.490562c0.166198,0.632339 0.563234,1.785892 0.7099,2.062561c0.048577,0.091585 0.143054,0.284534 0.210053,0.428768c0.209663,0.451588 0.758087,1.39941 0.97129,1.678566c0.072116,0.094406 0.175382,0.238445 0.229467,0.319941c0.054087,0.081551 0.127844,0.182255 0.163901,0.223824c0.036057,0.041504 0.19629,0.236998 0.356132,0.434467c0.751984,0.929077 2.701182,2.620884 3.019616,2.620884c0.036386,0 0.066219,0.02216 0.066219,0.049301c0,0.127975 0.595491,0.366817 0.680529,0.272934c0.358227,-0.395535 1.810141,-2.368206 1.779526,-2.417774c-0.021305,-0.034481 -0.210058,-0.154003 -0.419521,-0.265583c-0.876095,-0.466993 -2.062626,-1.469034 -2.716013,-2.293722c-0.185671,-0.234386 -0.353699,-0.440907 -0.37344,-0.458931c-0.071852,-0.06563 -0.462664,-0.657253 -0.628075,-0.95064c-1.146792,-2.0343 -1.587105,-4.33832 -1.240544,-6.490566c0.104439,-0.648268 0.522846,-2.144247 0.68269,-2.440844c0.034419,-0.06386 0.156684,-0.307814 0.271686,-0.542198c0.302366,-0.616076 0.386282,-0.757162 0.881401,-1.482729c0.325249,-0.476631 1.504827,-1.673779 2.032402,-2.062626c0.216347,-0.159512 0.403198,-0.312137 0.415201,-0.33915c0.01206,-0.027073 0.048317,-0.049171 0.0807,-0.049171c0.032324,0 0.214254,-0.096834 0.404322,-0.215172c0.610371,-0.380191 1.305258,-0.692065 2.279495,-1.023083c1.552034,-0.527308 4.217367,-0.527308 5.769394,0c0.895771,0.304334 1.669329,0.651348 2.261871,1.014694c0.144226,0.088444 0.306496,0.180162 0.360586,0.203762c0.054085,0.023668 0.113092,0.060055 0.131117,0.08097c0.018038,0.020845 0.209795,0.168493 0.426159,0.328131c1.130985,0.834337 2.254375,2.200893 2.913795,3.544374c0.114994,0.234385 0.23727,0.478338 0.27169,0.542198c0.812759,1.507973 1.008198,4.58614 0.419201,6.603983c-0.153488,0.525932 -0.351147,1.101107 -0.422874,1.230913c-0.034424,0.06222 -0.138199,0.27536 -0.230648,0.47368c-0.092438,0.198324 -0.240868,0.478596 -0.329903,0.622833c-0.089027,0.144232 -0.181797,0.306494 -0.206184,0.360588c-0.02446,0.054083 -0.113617,0.186848 -0.198135,0.295023c-0.084564,0.108173 -0.17564,0.226191 -0.202377,0.262245c-0.853359,1.149618 -2.050238,2.223509 -3.104462,2.785437c-0.209471,0.11158 -0.398228,0.231102 -0.419529,0.265583c-0.030615,0.049568 1.421309,2.02224 1.779531,2.417774c0.085033,0.093884 0.680531,-0.144958 0.680531,-0.272934c0,-0.027142 0.029814,-0.049301 0.066198,-0.049301c0.318447,0 2.267643,-1.691807 3.01963,-2.620884c0.159843,-0.19747 0.320072,-0.392963 0.356133,-0.434467c0.036057,-0.041569 0.109818,-0.142273 0.163898,-0.223824c0.054096,-0.081495 0.159714,-0.225271 0.234711,-0.319422c0.075001,-0.094143 0.15728,-0.215427 0.182858,-0.26952c0.025562,-0.054083 0.082535,-0.157341 0.126534,-0.22946c0.236023,-0.386684 0.552414,-0.953323 0.660004,-1.182203c0.067265,-0.143059 0.161217,-0.335085 0.208683,-0.42667c0.147446,-0.284605 0.545078,-1.443005 0.707924,-2.062561c0.511383,-1.94573 0.524494,-4.712151 0.030624,-6.490562c-0.040062,-0.144238 -0.095787,-0.365503 -0.123913,-0.491711c-0.028126,-0.126205 -0.128956,-0.43598 -0.224152,-0.688391c-0.0952,-0.252409 -0.196625,-0.532688 -0.225334,-0.622837c-0.077503,-0.242838 -0.645454,-1.401243 -0.811264,-1.654697c-0.079124,-0.120897 -0.201393,-0.321712 -0.271748,-0.44628c-0.130669,-0.2313 -0.462463,-0.695013 -0.693771,-0.969587c-0.070934,-0.084179 -0.128956,-0.167836 -0.128956,-0.185929c0,-0.087658 -1.285656,-1.403469 -1.835716,-1.878789c-0.766014,-0.661972 -2.514732,-1.72197 -3.409187,-2.066493c-0.725628,-0.279554 -1.852306,-0.62834 -2.24548,-0.695278c-0.226442,-0.038483 -0.245846,-0.059005 -0.245846,-0.259951c0,-0.486005 -0.311941,-0.93523 -0.819521,-1.180167c-0.256477,-0.12378 -2.540758,-0.219892 -3.048599,-0.128302m-0.360584,11.798798c-2.665659,0.199244 -2.983044,0.522528 -2.983044,3.038179l0,1.360523l0.409758,0.117357c0.225403,0.064514 0.572025,0.16102 0.77035,0.21438c0.19832,0.053371 0.525867,0.152761 0.727928,0.220884c0.201994,0.06805 0.412117,0.123775 0.466988,0.123775c0.23353,0 0.710165,0.280994 0.914713,0.539175l0.217794,0.275028l0,4.231388c0,4.202154 -0.000982,4.23316 -0.140694,4.49357c-0.26185,0.488041 -1.042751,1.016201 -1.502405,1.016201c-0.097033,0 -0.430801,0.056118 -0.74176,0.124699c-0.310953,0.068577 -0.81617,0.174129 -1.122671,0.234509c-0.306498,0.060452 -0.822794,0.164036 -1.14732,0.23019c-0.324528,0.066086 -0.77441,0.156364 -0.999809,0.200485c-0.225332,0.044189 -0.409756,0.10162 -0.409756,0.127583c0,0.025963 -0.095917,0.042084 -0.213078,0.035732c-0.117224,-0.006298 -0.324131,0.026222 -0.459846,0.072384c-0.255619,0.086796 -0.264872,0.088963 -0.379925,0.088963c-0.038157,0 -0.051205,0.029499 -0.028913,0.065559c0.022291,0.03606 -0.004459,0.065567 -0.059401,0.065567c-0.174786,0 -0.235624,0.235817 -0.235624,0.913525l0,0.659939l8.588526,0l8.58853,0l0,-0.652531c0,-0.938839 -0.11467,-1.090347 -0.917858,-1.212288c-0.162262,-0.02459 -0.486794,-0.085033 -0.72117,-0.134338c-0.491194,-0.103191 -1.566919,-0.319023 -2.327435,-0.466999c-0.288464,-0.056049 -0.775253,-0.156689 -1.081755,-0.223495c-0.306499,-0.066875 -0.676985,-0.137543 -0.823391,-0.157082c-0.529535,-0.070675 -1.176035,-0.514725 -1.423656,-0.977844c-0.166788,-0.311943 -0.270443,-8.04804 -0.115526,-8.623276c0.112574,-0.41795 0.714163,-0.926643 1.095995,-0.926643c0.058214,0 0.271095,-0.05612 0.473089,-0.124701c0.202063,-0.068571 0.559101,-0.175697 0.793489,-0.238049c0.234386,-0.062347 0.582968,-0.159771 0.77467,-0.216484l0.348457,-0.103064l-0.020653,-1.478144c-0.024845,-1.774611 -0.209337,-2.244358 -1.036915,-2.640347c-0.432045,-0.206717 -3.823469,-0.383009 -5.277681,-0.274313"/>
</svg>