<svg xmlns="http://www.w3.org/2000/svg" width="40" height="40" viewBox="0 0 40 40">
	<ellipse ry="16" rx="16" cy="20" cx="20" fill="#FFFFFF"/>
    <path d="M19.93 5.9C27.62 5.9 33.86 12.14 33.86 19.82C33.86 20.32 33.83 20.81 33.78 21.29C33.79 21.29 33.84 21.32 33.93 21.38L38.5 13.89L37.4 9.57C35.96 11.89 35.15 13.18 34.99 13.44C32.5 7.58 26.7 3.45 19.93 3.45C17.44 3.45 15.08 4.03 12.96 5.03C13.18 5.04 14.23 5.08 16.12 5.16L16.07 6.46C17.75 6.09 19.04 5.9 19.93 5.9Z" fill="#000000"/>
    <path d="M19.93 33.75C17.04 33.75 14.34 32.86 12.12 31.34C12.11 31.34 12.11 31.34 12.1 31.35L16.62 38.87L20.92 40C19.49 37.68 18.7 36.39 18.54 36.13C19 36.17 19.46 36.2 19.93 36.2C28.85 36.2 36.1 29.04 36.29 20.18C36.15 20.42 35.45 21.59 34.19 23.72L33.42 23.26C28.76 30.25 24.27 33.75 19.93 33.75Z" fill="#000000"/>
    <path d="M6.01 19.82C6.01 14.05 9.53 9.1 14.54 6.99C14.54 6.95 14.55 6.77 14.56 6.45L5.78 6.04L2.5 9.05C5.46 9.2 7.1 9.27 7.43 9.29C5.02 12.14 3.56 15.81 3.56 19.82C3.56 26.05 7.06 31.48 12.19 34.25C12.04 34.01 11.3 32.86 9.95 30.77L10.78 30.29C7.6 26.1 6.01 22.61 6.01 19.82Z" fill="#000000"/>
    <ellipse ry="8" rx="8" cy="20" cx="20" fill="#000000"/>
</svg>

